<svg width="299.75mm" height="91.2mm" viewBox="0 0 299.75 91.2" xmlns="http://www.w3.org/2000/svg"><g id="svgGroup" stroke-linecap="round" fill-rule="evenodd" font-size="9pt" stroke="#000" stroke-width="0.25mm" fill="none" style="stroke:#000;stroke-width:0.25mm;fill:none"><path d="M 0 13.5 A 0.5 0.5 0 0 0 0.5 14 L 13.5 14 A 0.5 0.5 0 0 0 14 13.5 L 14 0.5 A 0.5 0.5 0 0 0 13.5 0 L 0.5 0 A 0.5 0.5 0 0 0 0 0.5 L 0 13.5 Z M 19.05 13.5 A 0.5 0.5 0 0 0 19.55 14 L 32.55 14 A 0.5 0.5 0 0 0 33.05 13.5 L 33.05 0.5 A 0.5 0.5 0 0 0 32.55 0 L 19.55 0 A 0.5 0.5 0 0 0 19.05 0.5 L 19.05 13.5 Z M 38.1 13.5 A 0.5 0.5 0 0 0 38.6 14 L 51.6 14 A 0.5 0.5 0 0 0 52.1 13.5 L 52.1 0.5 A 0.5 0.5 0 0 0 51.6 0 L 38.6 0 A 0.5 0.5 0 0 0 38.1 0.5 L 38.1 13.5 Z M 57.15 13.5 A 0.5 0.5 0 0 0 57.65 14 L 70.65 14 A 0.5 0.5 0 0 0 71.15 13.5 L 71.15 0.5 A 0.5 0.5 0 0 0 70.65 0 L 57.65 0 A 0.5 0.5 0 0 0 57.15 0.5 L 57.15 13.5 Z M 76.2 13.5 A 0.5 0.5 0 0 0 76.7 14 L 89.7 14 A 0.5 0.5 0 0 0 90.2 13.5 L 90.2 0.5 A 0.5 0.5 0 0 0 89.7 0 L 76.7 0 A 0.5 0.5 0 0 0 76.2 0.5 L 76.2 13.5 Z M 95.25 13.5 A 0.5 0.5 0 0 0 95.75 14 L 108.75 14 A 0.5 0.5 0 0 0 109.25 13.5 L 109.25 0.5 A 0.5 0.5 0 0 0 108.75 0 L 95.75 0 A 0.5 0.5 0 0 0 95.25 0.5 L 95.25 13.5 Z M 114.3 13.5 A 0.5 0.5 0 0 0 114.8 14 L 127.8 14 A 0.5 0.5 0 0 0 128.3 13.5 L 128.3 0.5 A 0.5 0.5 0 0 0 127.8 0 L 114.8 0 A 0.5 0.5 0 0 0 114.3 0.5 L 114.3 13.5 Z M 133.35 13.5 A 0.5 0.5 0 0 0 133.85 14 L 146.85 14 A 0.5 0.5 0 0 0 147.35 13.5 L 147.35 0.5 A 0.5 0.5 0 0 0 146.85 0 L 133.85 0 A 0.5 0.5 0 0 0 133.35 0.5 L 133.35 13.5 Z M 152.4 13.5 A 0.5 0.5 0 0 0 152.9 14 L 165.9 14 A 0.5 0.5 0 0 0 166.4 13.5 L 166.4 0.5 A 0.5 0.5 0 0 0 165.9 0 L 152.9 0 A 0.5 0.5 0 0 0 152.4 0.5 L 152.4 13.5 Z M 171.45 13.5 A 0.5 0.5 0 0 0 171.95 14 L 184.95 14 A 0.5 0.5 0 0 0 185.45 13.5 L 185.45 0.5 A 0.5 0.5 0 0 0 184.95 0 L 171.95 0 A 0.5 0.5 0 0 0 171.45 0.5 L 171.45 13.5 Z M 190.5 13.5 A 0.5 0.5 0 0 0 191 14 L 204 14 A 0.5 0.5 0 0 0 204.5 13.5 L 204.5 0.5 A 0.5 0.5 0 0 0 204 0 L 191 0 A 0.5 0.5 0 0 0 190.5 0.5 L 190.5 13.5 Z M 209.55 13.5 A 0.5 0.5 0 0 0 210.05 14 L 223.05 14 A 0.5 0.5 0 0 0 223.55 13.5 L 223.55 0.5 A 0.5 0.5 0 0 0 223.05 0 L 210.05 0 A 0.5 0.5 0 0 0 209.55 0.5 L 209.55 13.5 Z M 228.6 13.5 A 0.5 0.5 0 0 0 229.1 14 L 242.1 14 A 0.5 0.5 0 0 0 242.6 13.5 L 242.6 0.5 A 0.5 0.5 0 0 0 242.1 0 L 229.1 0 A 0.5 0.5 0 0 0 228.6 0.5 L 228.6 13.5 Z M 257.175 13.5 A 0.5 0.5 0 0 0 257.675 14 L 270.675 14 A 0.5 0.5 0 0 0 271.175 13.5 L 271.175 0.5 A 0.5 0.5 0 0 0 270.675 0 L 257.675 0 A 0.5 0.5 0 0 0 257.175 0.5 L 257.175 13.5 Z M 285.75 13.5 A 0.5 0.5 0 0 0 286.25 14 L 299.25 14 A 0.5 0.5 0 0 0 299.75 13.5 L 299.75 0.5 A 0.5 0.5 0 0 0 299.25 0 L 286.25 0 A 0.5 0.5 0 0 0 285.75 0.5 L 285.75 13.5 Z M 4.7625 32.55 A 0.5 0.5 0 0 0 5.2625 33.05 L 18.2625 33.05 A 0.5 0.5 0 0 0 18.7625 32.55 L 18.7625 19.55 A 0.5 0.5 0 0 0 18.2625 19.05 L 5.2625 19.05 A 0.5 0.5 0 0 0 4.7625 19.55 L 4.7625 32.55 Z M 28.575 32.55 A 0.5 0.5 0 0 0 29.075 33.05 L 42.075 33.05 A 0.5 0.5 0 0 0 42.575 32.55 L 42.575 19.55 A 0.5 0.5 0 0 0 42.075 19.05 L 29.075 19.05 A 0.5 0.5 0 0 0 28.575 19.55 L 28.575 32.55 Z M 47.625 32.55 A 0.5 0.5 0 0 0 48.125 33.05 L 61.125 33.05 A 0.5 0.5 0 0 0 61.625 32.55 L 61.625 19.55 A 0.5 0.5 0 0 0 61.125 19.05 L 48.125 19.05 A 0.5 0.5 0 0 0 47.625 19.55 L 47.625 32.55 Z M 66.675 32.55 A 0.5 0.5 0 0 0 67.175 33.05 L 80.175 33.05 A 0.5 0.5 0 0 0 80.675 32.55 L 80.675 19.55 A 0.5 0.5 0 0 0 80.175 19.05 L 67.175 19.05 A 0.5 0.5 0 0 0 66.675 19.55 L 66.675 32.55 Z M 85.725 32.55 A 0.5 0.5 0 0 0 86.225 33.05 L 99.225 33.05 A 0.5 0.5 0 0 0 99.725 32.55 L 99.725 19.55 A 0.5 0.5 0 0 0 99.225 19.05 L 86.225 19.05 A 0.5 0.5 0 0 0 85.725 19.55 L 85.725 32.55 Z M 104.775 32.55 A 0.5 0.5 0 0 0 105.275 33.05 L 118.275 33.05 A 0.5 0.5 0 0 0 118.775 32.55 L 118.775 19.55 A 0.5 0.5 0 0 0 118.275 19.05 L 105.275 19.05 A 0.5 0.5 0 0 0 104.775 19.55 L 104.775 32.55 Z M 123.825 32.55 A 0.5 0.5 0 0 0 124.325 33.05 L 137.325 33.05 A 0.5 0.5 0 0 0 137.825 32.55 L 137.825 19.55 A 0.5 0.5 0 0 0 137.325 19.05 L 124.325 19.05 A 0.5 0.5 0 0 0 123.825 19.55 L 123.825 32.55 Z M 142.875 32.55 A 0.5 0.5 0 0 0 143.375 33.05 L 156.375 33.05 A 0.5 0.5 0 0 0 156.875 32.55 L 156.875 19.55 A 0.5 0.5 0 0 0 156.375 19.05 L 143.375 19.05 A 0.5 0.5 0 0 0 142.875 19.55 L 142.875 32.55 Z M 161.925 32.55 A 0.5 0.5 0 0 0 162.425 33.05 L 175.425 33.05 A 0.5 0.5 0 0 0 175.925 32.55 L 175.925 19.55 A 0.5 0.5 0 0 0 175.425 19.05 L 162.425 19.05 A 0.5 0.5 0 0 0 161.925 19.55 L 161.925 32.55 Z M 180.975 32.55 A 0.5 0.5 0 0 0 181.475 33.05 L 194.475 33.05 A 0.5 0.5 0 0 0 194.975 32.55 L 194.975 19.55 A 0.5 0.5 0 0 0 194.475 19.05 L 181.475 19.05 A 0.5 0.5 0 0 0 180.975 19.55 L 180.975 32.55 Z M 200.025 32.55 A 0.5 0.5 0 0 0 200.525 33.05 L 213.525 33.05 A 0.5 0.5 0 0 0 214.025 32.55 L 214.025 19.55 A 0.5 0.5 0 0 0 213.525 19.05 L 200.525 19.05 A 0.5 0.5 0 0 0 200.025 19.55 L 200.025 32.55 Z M 219.075 32.55 A 0.5 0.5 0 0 0 219.575 33.05 L 232.575 33.05 A 0.5 0.5 0 0 0 233.075 32.55 L 233.075 19.55 A 0.5 0.5 0 0 0 232.575 19.05 L 219.575 19.05 A 0.5 0.5 0 0 0 219.075 19.55 L 219.075 32.55 Z M 238.125 32.55 A 0.5 0.5 0 0 0 238.625 33.05 L 251.625 33.05 A 0.5 0.5 0 0 0 252.125 32.55 L 252.125 19.55 A 0.5 0.5 0 0 0 251.625 19.05 L 238.625 19.05 A 0.5 0.5 0 0 0 238.125 19.55 L 238.125 32.55 Z M 264.31875 42.075 A 0.5 0.5 0 0 0 264.81875 42.575 L 277.81875 42.575 A 0.5 0.5 0 0 0 278.31875 42.075 L 278.31875 29.075 A 0.5 0.5 0 0 0 277.81875 28.575 L 264.81875 28.575 A 0.5 0.5 0 0 0 264.31875 29.075 L 264.31875 42.075 Z M 285.75 32.55 A 0.5 0.5 0 0 0 286.25 33.05 L 299.25 33.05 A 0.5 0.5 0 0 0 299.75 32.55 L 299.75 19.55 A 0.5 0.5 0 0 0 299.25 19.05 L 286.25 19.05 A 0.5 0.5 0 0 0 285.75 19.55 L 285.75 32.55 Z M 7.14375 51.6 A 0.5 0.5 0 0 0 7.64375 52.1 L 20.64375 52.1 A 0.5 0.5 0 0 0 21.14375 51.6 L 21.14375 38.6 A 0.5 0.5 0 0 0 20.64375 38.1 L 7.64375 38.1 A 0.5 0.5 0 0 0 7.14375 38.6 L 7.14375 51.6 Z M 33.3375 51.6 A 0.5 0.5 0 0 0 33.8375 52.1 L 46.8375 52.1 A 0.5 0.5 0 0 0 47.3375 51.6 L 47.3375 38.6 A 0.5 0.5 0 0 0 46.8375 38.1 L 33.8375 38.1 A 0.5 0.5 0 0 0 33.3375 38.6 L 33.3375 51.6 Z M 52.3875 51.6 A 0.5 0.5 0 0 0 52.8875 52.1 L 65.8875 52.1 A 0.5 0.5 0 0 0 66.3875 51.6 L 66.3875 38.6 A 0.5 0.5 0 0 0 65.8875 38.1 L 52.8875 38.1 A 0.5 0.5 0 0 0 52.3875 38.6 L 52.3875 51.6 Z M 71.4375 51.6 A 0.5 0.5 0 0 0 71.9375 52.1 L 84.9375 52.1 A 0.5 0.5 0 0 0 85.4375 51.6 L 85.4375 38.6 A 0.5 0.5 0 0 0 84.9375 38.1 L 71.9375 38.1 A 0.5 0.5 0 0 0 71.4375 38.6 L 71.4375 51.6 Z M 90.4875 51.6 A 0.5 0.5 0 0 0 90.9875 52.1 L 103.9875 52.1 A 0.5 0.5 0 0 0 104.4875 51.6 L 104.4875 38.6 A 0.5 0.5 0 0 0 103.9875 38.1 L 90.9875 38.1 A 0.5 0.5 0 0 0 90.4875 38.6 L 90.4875 51.6 Z M 109.5375 51.6 A 0.5 0.5 0 0 0 110.0375 52.1 L 123.0375 52.1 A 0.5 0.5 0 0 0 123.5375 51.6 L 123.5375 38.6 A 0.5 0.5 0 0 0 123.0375 38.1 L 110.0375 38.1 A 0.5 0.5 0 0 0 109.5375 38.6 L 109.5375 51.6 Z M 128.5875 51.6 A 0.5 0.5 0 0 0 129.0875 52.1 L 142.0875 52.1 A 0.5 0.5 0 0 0 142.5875 51.6 L 142.5875 38.6 A 0.5 0.5 0 0 0 142.0875 38.1 L 129.0875 38.1 A 0.5 0.5 0 0 0 128.5875 38.6 L 128.5875 51.6 Z M 147.6375 51.6 A 0.5 0.5 0 0 0 148.1375 52.1 L 161.1375 52.1 A 0.5 0.5 0 0 0 161.6375 51.6 L 161.6375 38.6 A 0.5 0.5 0 0 0 161.1375 38.1 L 148.1375 38.1 A 0.5 0.5 0 0 0 147.6375 38.6 L 147.6375 51.6 Z M 166.6875 51.6 A 0.5 0.5 0 0 0 167.1875 52.1 L 180.1875 52.1 A 0.5 0.5 0 0 0 180.6875 51.6 L 180.6875 38.6 A 0.5 0.5 0 0 0 180.1875 38.1 L 167.1875 38.1 A 0.5 0.5 0 0 0 166.6875 38.6 L 166.6875 51.6 Z M 185.7375 51.6 A 0.5 0.5 0 0 0 186.2375 52.1 L 199.2375 52.1 A 0.5 0.5 0 0 0 199.7375 51.6 L 199.7375 38.6 A 0.5 0.5 0 0 0 199.2375 38.1 L 186.2375 38.1 A 0.5 0.5 0 0 0 185.7375 38.6 L 185.7375 51.6 Z M 204.7875 51.6 A 0.5 0.5 0 0 0 205.2875 52.1 L 218.2875 52.1 A 0.5 0.5 0 0 0 218.7875 51.6 L 218.7875 38.6 A 0.5 0.5 0 0 0 218.2875 38.1 L 205.2875 38.1 A 0.5 0.5 0 0 0 204.7875 38.6 L 204.7875 51.6 Z M 223.8375 51.6 A 0.5 0.5 0 0 0 224.3375 52.1 L 237.3375 52.1 A 0.5 0.5 0 0 0 237.8375 51.6 L 237.8375 38.6 A 0.5 0.5 0 0 0 237.3375 38.1 L 224.3375 38.1 A 0.5 0.5 0 0 0 223.8375 38.6 L 223.8375 51.6 Z M 242.8875 51.6 A 0.5 0.5 0 0 0 243.3875 52.1 L 256.3875 52.1 A 0.5 0.5 0 0 0 256.8875 51.6 L 256.8875 38.6 A 0.5 0.5 0 0 0 256.3875 38.1 L 243.3875 38.1 A 0.5 0.5 0 0 0 242.8875 38.6 L 242.8875 51.6 Z M 285.75 51.6 A 0.5 0.5 0 0 0 286.25 52.1 L 299.25 52.1 A 0.5 0.5 0 0 0 299.75 51.6 L 299.75 38.6 A 0.5 0.5 0 0 0 299.25 38.1 L 286.25 38.1 A 0.5 0.5 0 0 0 285.75 38.6 L 285.75 51.6 Z M 2.38125 70.65 A 0.5 0.5 0 0 0 2.88125 71.15 L 15.88125 71.15 A 0.5 0.5 0 0 0 16.38125 70.65 L 16.38125 57.65 A 0.5 0.5 0 0 0 15.88125 57.15 L 2.88125 57.15 A 0.5 0.5 0 0 0 2.38125 57.65 L 2.38125 70.65 Z M 23.8125 70.65 A 0.5 0.5 0 0 0 24.3125 71.15 L 37.3125 71.15 A 0.5 0.5 0 0 0 37.8125 70.65 L 37.8125 57.65 A 0.5 0.5 0 0 0 37.3125 57.15 L 24.3125 57.15 A 0.5 0.5 0 0 0 23.8125 57.65 L 23.8125 70.65 Z M 42.8625 70.65 A 0.5 0.5 0 0 0 43.3625 71.15 L 56.3625 71.15 A 0.5 0.5 0 0 0 56.8625 70.65 L 56.8625 57.65 A 0.5 0.5 0 0 0 56.3625 57.15 L 43.3625 57.15 A 0.5 0.5 0 0 0 42.8625 57.65 L 42.8625 70.65 Z M 61.9125 70.65 A 0.5 0.5 0 0 0 62.4125 71.15 L 75.4125 71.15 A 0.5 0.5 0 0 0 75.9125 70.65 L 75.9125 57.65 A 0.5 0.5 0 0 0 75.4125 57.15 L 62.4125 57.15 A 0.5 0.5 0 0 0 61.9125 57.65 L 61.9125 70.65 Z M 80.9625 70.65 A 0.5 0.5 0 0 0 81.4625 71.15 L 94.4625 71.15 A 0.5 0.5 0 0 0 94.9625 70.65 L 94.9625 57.65 A 0.5 0.5 0 0 0 94.4625 57.15 L 81.4625 57.15 A 0.5 0.5 0 0 0 80.9625 57.65 L 80.9625 70.65 Z M 100.0125 70.65 A 0.5 0.5 0 0 0 100.5125 71.15 L 113.5125 71.15 A 0.5 0.5 0 0 0 114.0125 70.65 L 114.0125 57.65 A 0.5 0.5 0 0 0 113.5125 57.15 L 100.5125 57.15 A 0.5 0.5 0 0 0 100.0125 57.65 L 100.0125 70.65 Z M 119.0625 70.65 A 0.5 0.5 0 0 0 119.5625 71.15 L 132.5625 71.15 A 0.5 0.5 0 0 0 133.0625 70.65 L 133.0625 57.65 A 0.5 0.5 0 0 0 132.5625 57.15 L 119.5625 57.15 A 0.5 0.5 0 0 0 119.0625 57.65 L 119.0625 70.65 Z M 138.1125 70.65 A 0.5 0.5 0 0 0 138.6125 71.15 L 151.6125 71.15 A 0.5 0.5 0 0 0 152.1125 70.65 L 152.1125 57.65 A 0.5 0.5 0 0 0 151.6125 57.15 L 138.6125 57.15 A 0.5 0.5 0 0 0 138.1125 57.65 L 138.1125 70.65 Z M 157.1625 70.65 A 0.5 0.5 0 0 0 157.6625 71.15 L 170.6625 71.15 A 0.5 0.5 0 0 0 171.1625 70.65 L 171.1625 57.65 A 0.5 0.5 0 0 0 170.6625 57.15 L 157.6625 57.15 A 0.5 0.5 0 0 0 157.1625 57.65 L 157.1625 70.65 Z M 176.2125 70.65 A 0.5 0.5 0 0 0 176.7125 71.15 L 189.7125 71.15 A 0.5 0.5 0 0 0 190.2125 70.65 L 190.2125 57.65 A 0.5 0.5 0 0 0 189.7125 57.15 L 176.7125 57.15 A 0.5 0.5 0 0 0 176.2125 57.65 L 176.2125 70.65 Z M 195.2625 70.65 A 0.5 0.5 0 0 0 195.7625 71.15 L 208.7625 71.15 A 0.5 0.5 0 0 0 209.2625 70.65 L 209.2625 57.65 A 0.5 0.5 0 0 0 208.7625 57.15 L 195.7625 57.15 A 0.5 0.5 0 0 0 195.2625 57.65 L 195.2625 70.65 Z M 214.3125 70.65 A 0.5 0.5 0 0 0 214.8125 71.15 L 227.8125 71.15 A 0.5 0.5 0 0 0 228.3125 70.65 L 228.3125 57.65 A 0.5 0.5 0 0 0 227.8125 57.15 L 214.8125 57.15 A 0.5 0.5 0 0 0 214.3125 57.65 L 214.3125 70.65 Z M 240.50625 70.65 A 0.5 0.5 0 0 0 241.00625 71.15 L 254.00625 71.15 A 0.5 0.5 0 0 0 254.50625 70.65 L 254.50625 57.65 A 0.5 0.5 0 0 0 254.00625 57.15 L 241.00625 57.15 A 0.5 0.5 0 0 0 240.50625 57.65 L 240.50625 70.65 Z M 266.7 70.65 A 0.5 0.5 0 0 0 267.2 71.15 L 280.2 71.15 A 0.5 0.5 0 0 0 280.7 70.65 L 280.7 57.65 A 0.5 0.5 0 0 0 280.2 57.15 L 267.2 57.15 A 0.5 0.5 0 0 0 266.7 57.65 L 266.7 70.65 Z M 285.75 70.65 A 0.5 0.5 0 0 0 286.25 71.15 L 299.25 71.15 A 0.5 0.5 0 0 0 299.75 70.65 L 299.75 57.65 A 0.5 0.5 0 0 0 299.25 57.15 L 286.25 57.15 A 0.5 0.5 0 0 0 285.75 57.65 L 285.75 70.65 Z M 2.38125 89.7 A 0.5 0.5 0 0 0 2.88125 90.2 L 15.88125 90.2 A 0.5 0.5 0 0 0 16.38125 89.7 L 16.38125 76.7 A 0.5 0.5 0 0 0 15.88125 76.2 L 2.88125 76.2 A 0.5 0.5 0 0 0 2.38125 76.7 L 2.38125 89.7 Z M 26.19375 89.7 A 0.5 0.5 0 0 0 26.69375 90.2 L 39.69375 90.2 A 0.5 0.5 0 0 0 40.19375 89.7 L 40.19375 76.7 A 0.5 0.5 0 0 0 39.69375 76.2 L 26.69375 76.2 A 0.5 0.5 0 0 0 26.19375 76.7 L 26.19375 89.7 Z M 50.00625 89.7 A 0.5 0.5 0 0 0 50.50625 90.2 L 63.50625 90.2 A 0.5 0.5 0 0 0 64.00625 89.7 L 64.00625 76.7 A 0.5 0.5 0 0 0 63.50625 76.2 L 50.50625 76.2 A 0.5 0.5 0 0 0 50.00625 76.7 L 50.00625 89.7 Z M 121.44375 89.7 A 0.5 0.5 0 0 0 121.94375 90.2 L 134.94375 90.2 A 0.5 0.5 0 0 0 135.44375 89.7 L 135.44375 76.7 A 0.5 0.5 0 0 0 134.94375 76.2 L 121.94375 76.2 A 0.5 0.5 0 0 0 121.44375 76.7 L 121.44375 89.7 Z M 190.5 89.7 A 0.5 0.5 0 0 0 191 90.2 L 204 90.2 A 0.5 0.5 0 0 0 204.5 89.7 L 204.5 76.7 A 0.5 0.5 0 0 0 204 76.2 L 191 76.2 A 0.5 0.5 0 0 0 190.5 76.7 L 190.5 89.7 Z M 209.55 89.7 A 0.5 0.5 0 0 0 210.05 90.2 L 223.05 90.2 A 0.5 0.5 0 0 0 223.55 89.7 L 223.55 76.7 A 0.5 0.5 0 0 0 223.05 76.2 L 210.05 76.2 A 0.5 0.5 0 0 0 209.55 76.7 L 209.55 89.7 Z M 228.6 89.7 A 0.5 0.5 0 0 0 229.1 90.2 L 242.1 90.2 A 0.5 0.5 0 0 0 242.6 89.7 L 242.6 76.7 A 0.5 0.5 0 0 0 242.1 76.2 L 229.1 76.2 A 0.5 0.5 0 0 0 228.6 76.7 L 228.6 89.7 Z M 247.65 89.7 A 0.5 0.5 0 0 0 248.15 90.2 L 261.15 90.2 A 0.5 0.5 0 0 0 261.65 89.7 L 261.65 76.7 A 0.5 0.5 0 0 0 261.15 76.2 L 248.15 76.2 A 0.5 0.5 0 0 0 247.65 76.7 L 247.65 89.7 Z M 266.7 89.7 A 0.5 0.5 0 0 0 267.2 90.2 L 280.2 90.2 A 0.5 0.5 0 0 0 280.7 89.7 L 280.7 76.7 A 0.5 0.5 0 0 0 280.2 76.2 L 267.2 76.2 A 0.5 0.5 0 0 0 266.7 76.7 L 266.7 89.7 Z M 285.75 89.7 A 0.5 0.5 0 0 0 286.25 90.2 L 299.25 90.2 A 0.5 0.5 0 0 0 299.75 89.7 L 299.75 76.7 A 0.5 0.5 0 0 0 299.25 76.2 L 286.25 76.2 A 0.5 0.5 0 0 0 285.75 76.7 L 285.75 89.7 Z M 248.737 14.5 A 0.5 0.5 0 0 0 249.237 15 L 255.237 15 A 0.5 0.5 0 0 0 255.737 14.5 L 255.737 0.5 A 0.5 0.5 0 0 0 255.237 0 L 249.237 0 A 0.5 0.5 0 0 0 248.737 0.5 L 248.737 14.5 Z M 272.613 14.5 A 0.5 0.5 0 0 0 273.113 15 L 279.113 15 A 0.5 0.5 0 0 0 279.613 14.5 L 279.613 0.5 A 0.5 0.5 0 0 0 279.113 0 L 273.113 0 A 0.5 0.5 0 0 0 272.613 0.5 L 272.613 14.5 Z M 263.81875 20.137 A 0.5 0.5 0 0 0 263.31875 20.637 L 263.31875 26.637 A 0.5 0.5 0 0 0 263.81875 27.137 L 277.81875 27.137 A 0.5 0.5 0 0 0 278.31875 26.637 L 278.31875 20.637 A 0.5 0.5 0 0 0 277.81875 20.137 L 263.81875 20.137 Z M 263.81875 44.013 A 0.5 0.5 0 0 0 263.31875 44.513 L 263.31875 50.513 A 0.5 0.5 0 0 0 263.81875 51.013 L 277.81875 51.013 A 0.5 0.5 0 0 0 278.31875 50.513 L 278.31875 44.513 A 0.5 0.5 0 0 0 277.81875 44.013 L 263.81875 44.013 Z M 74.94375 90.7 A 0.5 0.5 0 0 0 75.44375 91.2 L 81.44375 91.2 A 0.5 0.5 0 0 0 81.94375 90.7 L 81.94375 76.7 A 0.5 0.5 0 0 0 81.44375 76.2 L 75.44375 76.2 A 0.5 0.5 0 0 0 74.94375 76.7 L 74.94375 90.7 Z M 174.94375 90.7 A 0.5 0.5 0 0 0 175.44375 91.2 L 181.44375 91.2 A 0.5 0.5 0 0 0 181.94375 90.7 L 181.94375 76.7 A 0.5 0.5 0 0 0 181.44375 76.2 L 175.44375 76.2 A 0.5 0.5 0 0 0 174.94375 76.7 L 174.94375 90.7 Z" vector-effect="non-scaling-stroke"/></g></svg>